<svg width="679" height="900" viewBox="0 0 679 900" fill="none" xmlns="http://www.w3.org/2000/svg">
<g filter="url(#filter0_f_2_570)">
<path fill-rule="evenodd" clip-rule="evenodd" d="M263.424 50.7126C292.847 59.1987 302.962 94.5009 323.284 117.408C338.044 134.045 354.074 147.726 366.091 166.44C382.535 192.047 407.57 215.711 405.923 246.099C404.145 278.887 387.287 315.647 357.277 328.976C327.338 342.275 296.165 310.512 263.424 309.394C232.588 308.34 202.024 335.878 174.117 322.719C145.707 309.324 136.921 273.891 125.814 244.511C114.15 213.653 100.059 181.359 108.64 149.506C117.411 116.953 143.408 91.8638 171.826 73.725C199.029 56.3626 232.417 41.7696 263.424 50.7126Z" fill="#FAAA79"/>
</g>
<g filter="url(#filter1_f_2_570)">
<path fill-rule="evenodd" clip-rule="evenodd" d="M462.697 51.3699C491.254 52.9792 516.182 67.4484 540.214 82.9571C565.687 99.3954 594.91 114.832 605.217 143.342C615.639 172.174 602.05 202.744 594.232 232.388C585.88 264.052 586.348 304.333 558.299 321.234C530.179 338.178 494.664 319.127 462.697 311.644C438.204 305.911 417.601 293.793 394.887 282.982C365.513 269.001 319.835 270.269 310.372 239.143C300.858 207.848 343.495 185.209 355.969 154.972C366.942 128.371 357.915 93.8893 378.562 73.8473C399.914 53.1211 432.987 49.6956 462.697 51.3699Z" fill="#EF8EFF"/>
</g>
<g filter="url(#filter2_f_2_570)">
<path fill-rule="evenodd" clip-rule="evenodd" d="M432.67 259.225C459.652 258.197 486.759 260.332 510.423 273.336C536.422 287.624 565.365 306.259 571.189 335.348C576.947 364.108 550.572 387.979 538.75 414.823C528.482 438.135 523.233 462.802 506.57 482.07C485.924 505.944 463.591 531.158 432.67 537.488C398.63 544.456 362.017 536.643 332.945 517.615C303.051 498.049 275.615 468.05 272.238 432.482C269.004 398.413 299.46 372.331 316.325 342.553C329.211 319.8 337.847 294.328 359.105 279.102C380.274 263.941 406.65 260.216 432.67 259.225Z" fill="#50BDFA"/>
</g>
<g filter="url(#filter3_f_2_570)">
<path fill-rule="evenodd" clip-rule="evenodd" d="M453.67 625.225C480.652 624.197 507.759 626.332 531.423 639.336C557.422 653.624 586.365 672.259 592.189 701.348C597.947 730.108 571.572 753.979 559.75 780.823C549.482 804.135 544.233 828.802 527.57 848.07C506.924 871.944 484.591 897.158 453.67 903.488C419.63 910.456 383.017 902.643 353.945 883.615C324.051 864.049 296.615 834.05 293.238 798.482C290.004 764.413 320.46 738.331 337.325 708.553C350.211 685.8 358.847 660.328 380.105 645.102C401.274 629.941 427.65 626.216 453.67 625.225Z" fill="#FFAE73"/>
</g>
<g filter="url(#filter4_f_2_570)">
<path fill-rule="evenodd" clip-rule="evenodd" d="M220.966 264.819C253.465 254.306 286.787 228.386 318.228 241.736C349.56 255.039 363.097 294.016 368.775 327.579C374 358.464 361.664 388.718 347.849 416.831C335.72 441.514 314.857 458.497 295.06 477.587C271.361 500.438 253.562 543.798 220.966 539.176C186.91 534.348 186.54 481.253 160.711 458.538C138.916 439.371 100.61 444.298 85.1503 419.734C68.7284 393.641 63.849 356.173 79.6103 329.675C95.1827 303.495 133.035 305.388 160.722 292.685C181.336 283.227 199.386 271.799 220.966 264.819Z" fill="#699FF0"/>
</g>
<g filter="url(#filter5_f_2_570)">
<path fill-rule="evenodd" clip-rule="evenodd" d="M279.966 630.819C312.465 620.306 345.787 594.386 377.228 607.736C408.56 621.039 422.097 660.016 427.775 693.579C433 724.464 420.664 754.718 406.849 782.831C394.72 807.514 373.857 824.497 354.06 843.587C330.361 866.438 312.562 909.798 279.966 905.176C245.91 900.348 245.54 847.253 219.711 824.538C197.916 805.371 159.61 810.298 144.15 785.734C127.728 759.641 122.849 722.173 138.61 695.675C154.183 669.495 192.035 671.388 219.722 658.685C240.336 649.227 258.386 637.799 279.966 630.819Z" fill="#30B4FF"/>
</g>
<g filter="url(#filter6_f_2_570)">
<path fill-rule="evenodd" clip-rule="evenodd" d="M430.989 449.273C452.141 455.307 471.576 461.594 492.106 469.492C521.857 480.938 559.664 479.78 578.024 505.838C597.492 533.47 595.047 571.484 587.118 604.342C578.738 639.07 564.63 677.578 532.711 693.621C501.48 709.319 465.942 683.022 430.989 682.817C396.37 682.614 358.685 712.006 330.129 692.434C301.675 672.933 309.602 629.043 303.101 595.166C297.556 566.268 289.099 538.256 295.014 509.432C301.488 477.884 308.465 438.54 337.917 425.51C367.933 412.23 399.425 440.27 430.989 449.273Z" fill="#8845F5"/>
</g>
<g filter="url(#filter7_f_2_570)">
<path fill-rule="evenodd" clip-rule="evenodd" d="M225.673 389.411C257.666 385.608 287.793 408.808 309.466 432.648C328.73 453.837 325.179 485.717 336.957 511.821C351.018 542.988 387.79 565.629 384.831 599.693C381.8 634.598 351.853 662.162 322.269 680.933C293.823 698.982 259.311 698.834 225.673 700.679C189.856 702.643 148.608 714.94 121.058 691.969C93.5669 669.046 99.6423 626.127 93.8911 590.798C89.1246 561.518 78.5529 531.216 90.4667 504.048C101.953 477.855 133.388 469.483 155.203 450.986C179.593 430.307 193.92 393.186 225.673 389.411Z" fill="#6F86FF"/>
</g>
<defs>
<filter id="filter0_f_2_570" x="36" y="-22" width="440" height="424.224" filterUnits="userSpaceOnUse" color-interpolation-filters="sRGB">
<feFlood flood-opacity="0" result="BackgroundImageFix"/>
<feBlend mode="normal" in="SourceGraphic" in2="BackgroundImageFix" result="shape"/>
<feGaussianBlur stdDeviation="35" result="effect1_foregroundBlur_2_570"/>
</filter>
<filter id="filter1_f_2_570" x="239" y="-19" width="440" height="417.054" filterUnits="userSpaceOnUse" color-interpolation-filters="sRGB">
<feFlood flood-opacity="0" result="BackgroundImageFix"/>
<feBlend mode="normal" in="SourceGraphic" in2="BackgroundImageFix" result="shape"/>
<feGaussianBlur stdDeviation="35" result="effect1_foregroundBlur_2_570"/>
</filter>
<filter id="filter2_f_2_570" x="202" y="189" width="440" height="421" filterUnits="userSpaceOnUse" color-interpolation-filters="sRGB">
<feFlood flood-opacity="0" result="BackgroundImageFix"/>
<feBlend mode="normal" in="SourceGraphic" in2="BackgroundImageFix" result="shape"/>
<feGaussianBlur stdDeviation="35" result="effect1_foregroundBlur_2_570"/>
</filter>
<filter id="filter3_f_2_570" x="223" y="555" width="440" height="421" filterUnits="userSpaceOnUse" color-interpolation-filters="sRGB">
<feFlood flood-opacity="0" result="BackgroundImageFix"/>
<feBlend mode="normal" in="SourceGraphic" in2="BackgroundImageFix" result="shape"/>
<feGaussianBlur stdDeviation="35" result="effect1_foregroundBlur_2_570"/>
</filter>
<filter id="filter4_f_2_570" x="0" y="168" width="440" height="441.518" filterUnits="userSpaceOnUse" color-interpolation-filters="sRGB">
<feFlood flood-opacity="0" result="BackgroundImageFix"/>
<feBlend mode="normal" in="SourceGraphic" in2="BackgroundImageFix" result="shape"/>
<feGaussianBlur stdDeviation="35" result="effect1_foregroundBlur_2_570"/>
</filter>
<filter id="filter5_f_2_570" x="59" y="534" width="440" height="441.518" filterUnits="userSpaceOnUse" color-interpolation-filters="sRGB">
<feFlood flood-opacity="0" result="BackgroundImageFix"/>
<feBlend mode="normal" in="SourceGraphic" in2="BackgroundImageFix" result="shape"/>
<feGaussianBlur stdDeviation="35" result="effect1_foregroundBlur_2_570"/>
</filter>
<filter id="filter6_f_2_570" x="223" y="352" width="440" height="417.16" filterUnits="userSpaceOnUse" color-interpolation-filters="sRGB">
<feFlood flood-opacity="0" result="BackgroundImageFix"/>
<feBlend mode="normal" in="SourceGraphic" in2="BackgroundImageFix" result="shape"/>
<feGaussianBlur stdDeviation="35" result="effect1_foregroundBlur_2_570"/>
</filter>
<filter id="filter7_f_2_570" x="15" y="319" width="440" height="456.721" filterUnits="userSpaceOnUse" color-interpolation-filters="sRGB">
<feFlood flood-opacity="0" result="BackgroundImageFix"/>
<feBlend mode="normal" in="SourceGraphic" in2="BackgroundImageFix" result="shape"/>
<feGaussianBlur stdDeviation="35" result="effect1_foregroundBlur_2_570"/>
</filter>
</defs>
</svg>
